# xmcd
#
# Track frame offsets:
#	183
#	13163
#	27260
#	45140
#	60618
#	74653
#	90020
#	105830
#	118933
#	135030
#	153033
#	166908
#
# Disc length: 2365 seconds
#
# Revision: 1
# Processed by: cddbd v1.4PL0 Copyright (c) Steve Scherf et al.
# Submitted via: audiograbber 1.82.02
#
DISCID=80093b0c
DTITLE=Summer - Mémories vol 3
DYEAR=1900
DGENRE=Blues
TTITLE0=When a man loves a woman
TTITLE1=Dancin ' on a saturday night
TTITLE2=A whiter shade of pale
TTITLE3=Words
TTITLE4=Love is all
TTITLE5=Oh what a night
TTITLE6=It 's a heartache
TTITLE7=Make me an island
TTITLE8=Barbados
TTITLE9=Driver's seat
TTITLE10=hang on sicopy
TTITLE11=Queen for tonight
EXTD=
EXTT0=
EXTT1=
EXTT2=
EXTT3=
EXTT4=
EXTT5=
EXTT6=
EXTT7=
EXTT8=
EXTT9=
EXTT10=
EXTT11=
PLAYORDER=
